<mxfile host="app.diagrams.net" modified="2024-02-08T13:12:47.022Z" agent="Mozilla/5.0 (Windows NT 10.0; Win64; x64; rv:93.0) Gecko/20100101 Firefox/93.0" etag="lrcXOmNtKhdAPDlsIPDC" version="23.1.2" type="device">
  <diagram name="Page-1" id="GHPEcvl7GEJF9nP216B5">
    <mxGraphModel dx="1434" dy="782" grid="1" gridSize="10" guides="1" tooltips="1" connect="1" arrows="1" fold="1" page="1" pageScale="1" pageWidth="827" pageHeight="1169" math="0" shadow="0">
      <root>
        <mxCell id="0" />
        <mxCell id="1" parent="0" />
        <mxCell id="bOjq4fvFrnCKSfohEz1J-1" value="&lt;b&gt;&lt;font style=&quot;font-size: 14px;&quot;&gt;PLAY STATE&lt;br&gt;&lt;/font&gt;&lt;/b&gt;&lt;div&gt;&lt;font style=&quot;font-size: 14px;&quot;&gt;Inputs joueur&lt;/font&gt;&lt;/div&gt;&lt;div&gt;&lt;font style=&quot;font-size: 14px;&quot;&gt;Gestion chute&lt;br&gt;&lt;/font&gt;&lt;/div&gt;&lt;b&gt;&lt;font style=&quot;font-size: 14px;&quot;&gt;&lt;/font&gt;&lt;/b&gt;" style="ellipse;whiteSpace=wrap;html=1;" vertex="1" parent="1">
          <mxGeometry x="350" y="170" width="120" height="80" as="geometry" />
        </mxCell>
        <mxCell id="bOjq4fvFrnCKSfohEz1J-2" value="&lt;div style=&quot;font-size: 14px;&quot;&gt;&lt;b&gt;SCORE STATE&lt;/b&gt;&lt;/div&gt;&lt;div style=&quot;font-size: 14px;&quot;&gt;Calcul du score&lt;b&gt;&lt;br&gt;&lt;/b&gt;&lt;/div&gt;" style="ellipse;whiteSpace=wrap;html=1;" vertex="1" parent="1">
          <mxGeometry x="540" y="320" width="120" height="80" as="geometry" />
        </mxCell>
        <mxCell id="bOjq4fvFrnCKSfohEz1J-3" value="&lt;div style=&quot;font-size: 14px;&quot;&gt;&lt;b&gt;SPAWN STATE&lt;/b&gt;&lt;/div&gt;&lt;div style=&quot;font-size: 14px;&quot;&gt;Génération d&#39;une pièce&lt;b&gt;&lt;br&gt;&lt;/b&gt;&lt;/div&gt;" style="ellipse;whiteSpace=wrap;html=1;" vertex="1" parent="1">
          <mxGeometry x="350" y="480" width="120" height="80" as="geometry" />
        </mxCell>
        <mxCell id="bOjq4fvFrnCKSfohEz1J-4" value="&lt;b&gt;&lt;font style=&quot;font-size: 14px;&quot;&gt;GAMEOVER&lt;br&gt;STATE&lt;br&gt;&lt;/font&gt;&lt;/b&gt;&lt;font style=&quot;font-size: 14px;&quot;&gt;Fin de partie&lt;br&gt;&lt;/font&gt;&lt;b&gt;&lt;font style=&quot;font-size: 14px;&quot;&gt;&lt;/font&gt;&lt;/b&gt;" style="ellipse;whiteSpace=wrap;html=1;" vertex="1" parent="1">
          <mxGeometry x="140" y="320" width="120" height="80" as="geometry" />
        </mxCell>
        <mxCell id="bOjq4fvFrnCKSfohEz1J-5" value="" style="endArrow=classic;html=1;rounded=0;entryX=0;entryY=0;entryDx=0;entryDy=0;exitX=1;exitY=1;exitDx=0;exitDy=0;" edge="1" parent="1" source="bOjq4fvFrnCKSfohEz1J-1" target="bOjq4fvFrnCKSfohEz1J-2">
          <mxGeometry width="50" height="50" relative="1" as="geometry">
            <mxPoint x="390" y="420" as="sourcePoint" />
            <mxPoint x="440" y="370" as="targetPoint" />
          </mxGeometry>
        </mxCell>
        <mxCell id="bOjq4fvFrnCKSfohEz1J-6" value="" style="endArrow=classic;html=1;rounded=0;exitX=0.075;exitY=0.188;exitDx=0;exitDy=0;entryX=1;entryY=1;entryDx=0;entryDy=0;exitPerimeter=0;" edge="1" parent="1" source="bOjq4fvFrnCKSfohEz1J-3" target="bOjq4fvFrnCKSfohEz1J-4">
          <mxGeometry width="50" height="50" relative="1" as="geometry">
            <mxPoint x="390" y="420" as="sourcePoint" />
            <mxPoint x="440" y="370" as="targetPoint" />
          </mxGeometry>
        </mxCell>
        <mxCell id="bOjq4fvFrnCKSfohEz1J-7" value="" style="endArrow=classic;html=1;rounded=0;entryX=1;entryY=0;entryDx=0;entryDy=0;exitX=0;exitY=1;exitDx=0;exitDy=0;" edge="1" parent="1" source="bOjq4fvFrnCKSfohEz1J-2" target="bOjq4fvFrnCKSfohEz1J-3">
          <mxGeometry width="50" height="50" relative="1" as="geometry">
            <mxPoint x="390" y="420" as="sourcePoint" />
            <mxPoint x="440" y="370" as="targetPoint" />
          </mxGeometry>
        </mxCell>
        <mxCell id="bOjq4fvFrnCKSfohEz1J-8" value="" style="endArrow=classic;html=1;rounded=0;exitX=0.5;exitY=0;exitDx=0;exitDy=0;entryX=0.5;entryY=1;entryDx=0;entryDy=0;" edge="1" parent="1" source="bOjq4fvFrnCKSfohEz1J-3" target="bOjq4fvFrnCKSfohEz1J-1">
          <mxGeometry width="50" height="50" relative="1" as="geometry">
            <mxPoint x="390" y="390" as="sourcePoint" />
            <mxPoint x="440" y="340" as="targetPoint" />
          </mxGeometry>
        </mxCell>
        <mxCell id="bOjq4fvFrnCKSfohEz1J-10" value="" style="verticalLabelPosition=bottom;html=1;verticalAlign=top;strokeWidth=1;shape=mxgraph.lean_mapping.physical_pull;pointerEvents=1;rotation=-220;perimeterSpacing=1;" vertex="1" parent="1">
          <mxGeometry x="390" y="70" width="119.39" height="124.39" as="geometry" />
        </mxCell>
        <mxCell id="bOjq4fvFrnCKSfohEz1J-13" value="&lt;font style=&quot;font-size: 16px;&quot;&gt;Pièce touche le fond&lt;/font&gt;" style="text;html=1;align=center;verticalAlign=middle;resizable=0;points=[];autosize=1;strokeColor=none;fillColor=none;" vertex="1" parent="1">
          <mxGeometry x="480" y="250" width="170" height="30" as="geometry" />
        </mxCell>
        <mxCell id="bOjq4fvFrnCKSfohEz1J-14" value="&lt;font style=&quot;font-size: 16px;&quot;&gt;Impossible de placer&lt;br&gt;une nouvelle pièce&lt;/font&gt;" style="text;html=1;align=center;verticalAlign=middle;resizable=0;points=[];autosize=1;strokeColor=none;fillColor=none;" vertex="1" parent="1">
          <mxGeometry x="140" y="440" width="170" height="50" as="geometry" />
        </mxCell>
      </root>
    </mxGraphModel>
  </diagram>
</mxfile>
